<svg xmlns="http://www.w3.org/2000/svg" xmlns:xlink="http://www.w3.org/1999/xlink" width="500" zoomAndPan="magnify" viewBox="0 0 375 374.999991" height="500" preserveAspectRatio="xMidYMid meet" version="1.0"><defs><g/><clipPath id="977db7491b"><path d="M 87.152344 59.515625 L 288 59.515625 L 288 320.515625 L 87.152344 320.515625 Z M 87.152344 59.515625 " clip-rule="nonzero"/></clipPath><clipPath id="992d0a86ab"><path d="M 92.542969 65.027344 L 282.292969 65.027344 L 282.292969 311.777344 L 92.542969 311.777344 Z M 92.542969 65.027344 " clip-rule="nonzero"/></clipPath><clipPath id="eb52f49313"><path d="M 97.980469 71.304688 L 277.230469 71.304688 L 277.230469 304.554688 L 97.980469 304.554688 Z M 97.980469 71.304688 " clip-rule="nonzero"/></clipPath><clipPath id="478b132df6"><path d="M 188 87.769531 L 245.441406 87.769531 L 245.441406 172 L 188 172 Z M 188 87.769531 " clip-rule="nonzero"/></clipPath><clipPath id="34b14f6cfb"><path d="M 129.191406 87.769531 L 245.441406 87.769531 L 245.441406 265.519531 L 129.191406 265.519531 Z M 129.191406 87.769531 " clip-rule="nonzero"/></clipPath><clipPath id="e222c85f66"><path d="M 181.941406 271.472656 L 193.191406 271.472656 L 193.191406 281.972656 L 181.941406 281.972656 Z M 181.941406 271.472656 " clip-rule="nonzero"/></clipPath><clipPath id="b3cd28670f"><path d="M 76.371094 149.953125 L 298.730469 149.953125 L 298.730469 199.496094 L 76.371094 199.496094 Z M 76.371094 149.953125 " clip-rule="nonzero"/></clipPath><clipPath id="497d4ce582"><path d="M 86.121094 149.953125 L 288.878906 149.953125 C 294.265625 149.953125 298.628906 154.320312 298.628906 159.703125 L 298.628906 189.746094 C 298.628906 195.132812 294.265625 199.496094 288.878906 199.496094 L 86.121094 199.496094 C 80.734375 199.496094 76.371094 195.132812 76.371094 189.746094 L 76.371094 159.703125 C 76.371094 154.320312 80.734375 149.953125 86.121094 149.953125 Z M 86.121094 149.953125 " clip-rule="nonzero"/></clipPath><clipPath id="a9c56bef39"><path d="M 76.386719 149.953125 L 298.371094 149.953125 L 298.371094 199.453125 L 76.386719 199.453125 Z M 76.386719 149.953125 " clip-rule="nonzero"/></clipPath><clipPath id="3d3aed903d"><path d="M 86.136719 149.953125 L 288.863281 149.953125 C 294.246094 149.953125 298.613281 154.320312 298.613281 159.703125 L 298.613281 189.742188 C 298.613281 195.125 294.246094 199.488281 288.863281 199.488281 L 86.136719 199.488281 C 80.75 199.488281 76.386719 195.125 76.386719 189.742188 L 76.386719 159.703125 C 76.386719 154.320312 80.75 149.953125 86.136719 149.953125 Z M 86.136719 149.953125 " clip-rule="nonzero"/></clipPath><clipPath id="96e4e183d7"><path d="M 180 79.585938 L 195 79.585938 L 195 93 L 180 93 Z M 180 79.585938 " clip-rule="nonzero"/></clipPath><clipPath id="8f41a89694"><path d="M 168.015625 85 L 179 85 L 179 96 L 168.015625 96 Z M 168.015625 85 " clip-rule="nonzero"/></clipPath></defs><g clip-path="url(#977db7491b)"><path fill="#0085ff" d="M 287.328125 80.972656 C 286.980469 80.800781 245.667969 59.710938 187.410156 59.710938 C 129.15625 59.710938 88.015625 80.800781 87.667969 80.972656 L 87.152344 81.320312 L 87.152344 173.628906 C 87.152344 209.929688 102.707031 244.503906 129.675781 268.53125 L 187.410156 320.390625 L 245.320312 268.703125 C 272.289062 244.503906 287.847656 209.929688 287.847656 173.800781 L 287.847656 81.320312 C 287.847656 81.320312 287.328125 80.972656 287.328125 80.972656 Z M 286.117188 173.628906 C 286.117188 209.410156 270.90625 243.464844 244.285156 267.320312 L 187.410156 317.96875 L 130.710938 267.320312 C 104.089844 243.464844 88.878906 209.410156 88.878906 173.628906 L 88.878906 82.355469 C 93.546875 79.9375 132.960938 61.4375 187.410156 61.4375 C 241.863281 61.4375 281.277344 79.9375 285.945312 82.355469 L 285.945312 173.628906 Z M 282.140625 85.984375 L 282.140625 173.109375 C 282.140625 207.335938 267.621094 240.007812 242.035156 262.652344 L 187.410156 311.402344 L 132.785156 262.652344 C 107.375 239.835938 92.855469 207.164062 92.855469 173.109375 L 92.855469 85.8125 L 93.199219 85.640625 C 93.71875 85.46875 132.613281 65.589844 187.410156 65.589844 C 242.210938 65.589844 281.277344 85.46875 281.621094 85.640625 C 281.621094 85.640625 282.140625 85.8125 282.140625 85.984375 Z M 282.140625 85.984375 " fill-opacity="1" fill-rule="nonzero"/></g><g clip-path="url(#992d0a86ab)"><path fill="#e2d19e" d="M 281.964844 85.332031 C 281.640625 85.167969 242.542969 65.210938 187.417969 65.210938 C 132.292969 65.210938 93.359375 85.167969 93.035156 85.332031 L 92.542969 85.660156 L 92.542969 173.011719 C 92.542969 207.363281 107.265625 240.078125 132.78125 262.816406 L 187.417969 311.886719 L 242.214844 262.976562 C 267.734375 240.078125 282.457031 207.363281 282.457031 173.175781 L 282.457031 85.660156 C 282.457031 85.660156 281.964844 85.332031 281.964844 85.332031 Z M 280.820312 173.011719 C 280.820312 206.871094 266.425781 239.097656 241.234375 261.667969 L 187.417969 309.597656 L 133.765625 261.667969 C 108.574219 239.097656 94.179688 206.871094 94.179688 173.011719 L 94.179688 86.640625 C 98.59375 84.351562 135.890625 66.847656 187.417969 66.847656 C 238.945312 66.847656 276.242188 84.351562 280.65625 86.640625 L 280.65625 173.011719 Z M 277.058594 90.078125 L 277.058594 172.519531 C 277.058594 204.90625 263.316406 235.824219 239.109375 257.253906 L 187.417969 303.382812 L 135.726562 257.253906 C 111.679688 235.660156 97.941406 204.746094 97.941406 172.519531 L 97.941406 89.914062 L 98.269531 89.75 C 98.757812 89.585938 135.5625 70.773438 187.417969 70.773438 C 239.273438 70.773438 276.242188 89.585938 276.566406 89.75 C 276.566406 89.75 277.058594 89.914062 277.058594 90.078125 Z M 277.058594 90.078125 " fill-opacity="1" fill-rule="nonzero"/></g><g clip-path="url(#eb52f49313)"><path fill="#ffde59" d="M 276.546875 90.449219 C 276.238281 90.292969 239.382812 71.480469 187.417969 71.480469 C 135.453125 71.480469 98.75 90.292969 98.441406 90.449219 L 97.980469 90.757812 L 97.980469 173.101562 C 97.980469 205.484375 111.859375 236.324219 135.914062 257.757812 L 187.417969 304.015625 L 239.074219 257.910156 C 263.128906 236.324219 277.007812 205.484375 277.007812 173.253906 L 277.007812 90.757812 C 277.007812 90.757812 276.546875 90.449219 276.546875 90.449219 Z M 275.464844 173.101562 C 275.464844 205.019531 261.894531 235.398438 238.148438 256.675781 L 187.417969 301.859375 L 136.839844 256.675781 C 113.09375 235.398438 99.523438 205.019531 99.523438 173.101562 L 99.523438 91.683594 C 103.6875 89.523438 138.84375 73.023438 187.417969 73.023438 C 235.992188 73.023438 271.148438 89.523438 275.3125 91.683594 L 275.3125 173.101562 Z M 271.917969 94.921875 L 271.917969 172.636719 C 271.917969 203.167969 258.964844 232.3125 236.144531 252.515625 L 187.417969 296 L 138.691406 252.515625 C 116.023438 232.160156 103.070312 203.015625 103.070312 172.636719 L 103.070312 94.765625 L 103.378906 94.613281 C 103.839844 94.457031 138.535156 76.726562 187.417969 76.726562 C 236.296875 76.726562 271.148438 94.457031 271.457031 94.613281 C 271.457031 94.613281 271.917969 94.765625 271.917969 94.921875 Z M 271.917969 94.921875 " fill-opacity="1" fill-rule="nonzero"/></g><path fill="#000000" d="M 163.929688 182.585938 C 163.882812 176.496094 163.839844 170.425781 163.796875 164.546875 L 161.871094 161.566406 L 162.035156 184.195312 L 162.050781 185.453125 Z M 163.929688 182.585938 " fill-opacity="1" fill-rule="nonzero"/><path fill="#000000" d="M 163.714844 119.386719 C 163.738281 115.511719 164.027344 111.761719 166 111.761719 C 169.40625 111.761719 170.574219 122.890625 170.921875 134.429688 C 171.066406 134.53125 171.214844 134.617188 171.363281 134.699219 L 171.667969 134.839844 L 171.738281 134.859375 L 171.808594 134.894531 L 171.886719 134.925781 C 172.164062 135.027344 172.457031 135.085938 172.757812 135.09375 L 172.824219 135.09375 C 172.824219 135.09375 172.847656 135.09375 172.855469 135.09375 L 172.835938 119.375 L 172.800781 113.285156 C 172.789062 111.4375 171.855469 109.800781 170.433594 108.8125 L 179.625 108.8125 C 180.464844 108.8125 181.277344 108.539062 181.949219 108.042969 L 183.503906 108.042969 C 185.253906 108.042969 186.675781 106.613281 186.675781 104.859375 C 186.675781 103.105469 185.253906 101.675781 183.503906 101.675781 L 181.949219 101.675781 C 181.277344 101.179688 180.464844 100.90625 179.625 100.90625 L 170.027344 100.90625 C 169.191406 100.90625 168.378906 101.179688 167.703125 101.675781 L 166.152344 101.675781 C 164.402344 101.675781 162.980469 103.105469 162.980469 104.859375 C 162.980469 106.613281 164.277344 107.890625 165.914062 108.019531 C 163.589844 108.644531 161.867188 110.765625 161.851562 113.285156 L 161.816406 119.390625 L 161.816406 121.257812 L 163.714844 124.214844 C 163.714844 122.410156 163.71875 120.789062 163.722656 119.390625 Z M 164.636719 104.597656 C 164.757812 103.84375 165.46875 103.320312 166.230469 103.320312 L 168.324219 103.320312 C 168.746094 102.847656 169.351562 102.550781 170.027344 102.550781 C 175.800781 102.550781 181.839844 103.640625 183.359375 105.121094 C 183.832031 105.582031 183.445312 106.398438 182.785156 106.398438 L 181.328125 106.398438 C 180.90625 106.871094 180.300781 107.167969 179.621094 107.167969 L 170.027344 107.167969 C 169.347656 107.167969 168.742188 106.871094 168.320312 106.398438 L 166.148438 106.398438 C 165.21875 106.398438 164.480469 105.566406 164.632812 104.597656 Z M 164.636719 104.597656 " fill-opacity="1" fill-rule="nonzero"/><path fill="#000000" d="M 212.75 161.570312 L 210.824219 164.550781 C 210.78125 170.429688 210.738281 176.5 210.695312 182.585938 L 212.574219 185.453125 L 212.585938 184.191406 Z M 212.75 161.570312 " fill-opacity="1" fill-rule="nonzero"/><path fill="#000000" d="M 192.847656 138.449219 C 192.847656 137.433594 192.847656 136.425781 192.84375 135.445312 L 192.828125 119.378906 L 192.789062 113.285156 C 192.769531 110.292969 190.328125 107.84375 187.3125 107.828125 C 184.3125 107.828125 181.855469 110.277344 181.835938 113.289062 L 181.800781 119.390625 L 181.78125 135.449219 C 181.78125 136.433594 181.777344 137.441406 181.777344 138.453125 L 183.683594 141.363281 C 183.683594 139.316406 183.683594 137.335938 183.6875 135.453125 C 183.691406 128.808594 183.699219 123.269531 183.703125 119.394531 C 183.726562 115.519531 184.28125 112.746094 187.019531 112.746094 C 190.992188 112.746094 191.496094 127.726562 191.324219 140.777344 L 192.84375 138.457031 Z M 192.847656 138.449219 " fill-opacity="1" fill-rule="nonzero"/><path fill="#000000" d="M 189.84375 108.042969 L 191.398438 108.042969 C 192.066406 108.539062 192.882812 108.8125 193.722656 108.8125 L 203.316406 108.8125 C 203.710938 108.8125 204.09375 108.746094 204.460938 108.632812 C 202.894531 109.59375 201.835938 111.316406 201.824219 113.285156 L 201.789062 119.386719 L 201.773438 135.09375 C 201.773438 135.09375 201.792969 135.09375 201.800781 135.09375 L 201.867188 135.09375 C 202.167969 135.082031 202.460938 135.023438 202.742188 134.921875 L 202.816406 134.894531 L 202.886719 134.855469 L 202.957031 134.839844 L 203.261719 134.695312 C 203.402344 134.621094 203.539062 134.539062 203.675781 134.449219 C 203.683594 128.25 203.6875 123.0625 203.691406 119.386719 C 203.714844 115.511719 204.003906 111.761719 205.976562 111.761719 C 208.425781 111.761719 209.71875 117.519531 210.382812 125.046875 L 212.816406 121.257812 L 212.816406 119.378906 L 212.777344 113.285156 C 212.761719 110.566406 210.734375 108.296875 208.097656 107.894531 C 209.40625 107.503906 210.367188 106.300781 210.367188 104.863281 C 210.367188 103.109375 208.941406 101.679688 207.195312 101.679688 L 205.640625 101.679688 C 204.96875 101.183594 204.152344 100.910156 203.316406 100.910156 L 193.71875 100.910156 C 192.882812 100.910156 192.066406 101.183594 191.394531 101.679688 L 189.84375 101.679688 C 188.09375 101.679688 186.671875 103.109375 186.671875 104.863281 C 186.671875 106.617188 188.09375 108.042969 189.84375 108.042969 Z M 205.46875 108.148438 C 205.527344 108.109375 205.585938 108.082031 205.640625 108.042969 L 205.789062 108.042969 C 205.683594 108.074219 205.574219 108.109375 205.46875 108.148438 Z M 188.332031 104.597656 C 188.453125 103.84375 189.160156 103.320312 189.925781 103.320312 L 192.015625 103.320312 C 192.4375 102.847656 193.042969 102.550781 193.722656 102.550781 C 199.492188 102.550781 205.535156 103.640625 207.054688 105.121094 C 207.523438 105.582031 207.136719 106.398438 206.480469 106.398438 L 205.019531 106.398438 C 204.601562 106.871094 203.996094 107.167969 203.316406 107.167969 L 193.71875 107.167969 C 193.039062 107.167969 192.433594 106.871094 192.015625 106.398438 L 189.84375 106.398438 C 188.910156 106.398438 188.171875 105.566406 188.328125 104.597656 Z M 188.332031 104.597656 " fill-opacity="1" fill-rule="nonzero"/><g clip-path="url(#478b132df6)"><path fill="#000000" d="M 245.292969 93.085938 C 245.285156 93.007812 245.285156 92.933594 245.269531 92.859375 C 245.261719 92.8125 245.246094 92.769531 245.238281 92.722656 C 245.183594 92.453125 245.101562 92.183594 244.984375 91.933594 C 244.777344 91.492188 244.480469 91.097656 244.113281 90.78125 C 243.992188 90.675781 243.863281 90.578125 243.726562 90.488281 L 240.699219 88.507812 C 240.503906 88.378906 240.292969 88.273438 240.082031 88.1875 C 239.203125 87.816406 238.226562 87.796875 237.367188 88.160156 C 237.355469 88.164062 237.347656 88.171875 237.335938 88.175781 C 236.695312 88.449219 236.152344 88.894531 235.757812 89.5 L 207.492188 133.433594 C 207 134.183594 206.503906 134.796875 205.96875 135.304688 C 205.871094 135.398438 205.769531 135.484375 205.671875 135.570312 C 205.277344 135.914062 204.871094 136.207031 204.464844 136.445312 C 204.390625 136.488281 204.316406 136.53125 204.238281 136.574219 L 204.398438 136.921875 L 204.550781 137.269531 L 204.304688 136.882812 L 204.144531 136.625 L 204.140625 136.625 L 203.648438 136.851562 C 203.648438 136.851562 203.632812 136.859375 203.625 136.859375 L 203.472656 136.910156 C 203.402344 136.933594 203.328125 136.945312 203.253906 136.972656 C 203.066406 137.03125 202.878906 137.09375 202.6875 137.132812 C 202.628906 137.144531 202.570312 137.140625 202.511719 137.148438 C 202.300781 137.179688 202.085938 137.210938 201.871094 137.214844 L 201.847656 137.214844 C 201.75 137.214844 201.65625 137.207031 201.5625 137.203125 C 201.484375 137.199219 201.40625 137.203125 201.324219 137.195312 C 201.246094 137.1875 201.179688 137.171875 201.101562 137.164062 C 200.996094 137.148438 200.886719 137.136719 200.789062 137.117188 C 200.59375 137.078125 200.414062 137.03125 200.246094 136.984375 C 200.164062 136.960938 200.082031 136.933594 199.984375 136.894531 C 199.96875 136.890625 199.957031 136.882812 199.9375 136.878906 C 199.507812 136.722656 199.089844 136.519531 198.695312 136.265625 L 198.6875 136.265625 C 198.550781 136.179688 198.410156 136.121094 198.265625 136.082031 C 198.242188 136.078125 198.21875 136.066406 198.195312 136.0625 C 198.042969 136.023438 197.890625 136.011719 197.738281 136.019531 C 197.734375 136.019531 197.734375 136.019531 197.730469 136.019531 C 197.570312 136.03125 197.410156 136.066406 197.261719 136.121094 C 197.257812 136.121094 197.253906 136.121094 197.25 136.125 C 197.105469 136.183594 196.972656 136.261719 196.847656 136.363281 C 196.835938 136.371094 196.828125 136.371094 196.816406 136.378906 C 196.804688 136.386719 196.800781 136.402344 196.789062 136.410156 C 196.679688 136.507812 196.574219 136.617188 196.484375 136.75 L 188.570312 148.828125 L 189.53125 150.296875 L 197.492188 138.148438 C 198.765625 142.667969 196.691406 150.921875 194.421875 157.757812 L 195.945312 160.085938 L 236.535156 97.714844 C 237.957031 98.703125 239.339844 99.496094 239.339844 99.496094 L 241.007812 96.519531 C 241.007812 96.519531 239.664062 95.890625 238.253906 95.074219 L 241.101562 90.695312 L 242.847656 91.835938 C 243.140625 92.03125 243.378906 92.300781 243.527344 92.621094 C 243.679688 92.945312 243.738281 93.300781 243.703125 93.648438 C 243.667969 93.953125 243.5625 94.25 243.398438 94.496094 L 214.671875 138.136719 C 214.128906 138.960938 213.703125 139.796875 213.414062 140.621094 C 213.109375 141.453125 212.925781 142.277344 212.859375 143.140625 C 212.855469 143.167969 212.851562 143.1875 212.851562 143.214844 C 212.835938 143.410156 212.832031 143.605469 212.839844 143.753906 C 212.839844 143.914062 212.839844 144.074219 212.855469 144.148438 C 212.855469 144.246094 212.863281 144.339844 212.875 144.402344 C 212.882812 144.527344 212.894531 144.636719 212.90625 144.691406 C 212.949219 144.996094 213.011719 145.3125 213.109375 145.648438 C 213.179688 145.882812 213.257812 146.101562 213.347656 146.324219 C 213.617188 146.96875 213.996094 147.582031 214.46875 148.144531 C 214.929688 148.6875 215.46875 149.171875 216.078125 149.589844 L 202.664062 170.332031 L 203.628906 171.800781 L 217.421875 150.46875 C 217.460938 150.410156 217.488281 150.347656 217.519531 150.285156 C 217.535156 150.25 217.558594 150.21875 217.570312 150.183594 C 217.574219 150.164062 217.578125 150.152344 217.582031 150.132812 C 217.828125 149.453125 217.59375 148.660156 216.96875 148.242188 C 216.484375 147.917969 216.054688 147.53125 215.691406 147.105469 C 215.511719 146.890625 215.347656 146.667969 215.207031 146.4375 C 215.207031 146.433594 215.203125 146.429688 215.199219 146.425781 C 215.1875 146.40625 215.179688 146.382812 215.167969 146.363281 C 215.039062 146.148438 214.921875 145.929688 214.828125 145.703125 C 214.816406 145.679688 214.8125 145.652344 214.800781 145.628906 C 214.742188 145.480469 214.691406 145.335938 214.648438 145.191406 C 214.648438 145.191406 214.640625 145.164062 214.640625 145.152344 C 214.578125 144.917969 214.527344 144.6875 214.488281 144.421875 C 214.476562 144.371094 214.476562 144.320312 214.472656 144.246094 C 214.472656 144.234375 214.460938 144.097656 214.453125 144.058594 C 214.453125 144.054688 214.453125 144.054688 214.453125 144.046875 C 214.453125 144.011719 214.449219 143.980469 214.449219 143.941406 C 214.449219 143.878906 214.449219 143.8125 214.445312 143.726562 C 214.445312 143.707031 214.445312 143.683594 214.445312 143.664062 C 214.445312 143.554688 214.445312 143.441406 214.453125 143.328125 C 214.453125 143.304688 214.457031 143.285156 214.460938 143.273438 C 214.507812 142.597656 214.664062 141.890625 214.929688 141.164062 C 215.011719 140.933594 215.109375 140.699219 215.214844 140.460938 C 215.398438 140.0625 215.613281 139.664062 215.867188 139.261719 C 215.917969 139.183594 215.964844 139.097656 216.015625 139.019531 L 241.097656 100.910156 L 244.746094 95.378906 C 244.777344 95.324219 244.808594 95.265625 244.839844 95.207031 C 245.046875 94.851562 245.1875 94.457031 245.261719 94.042969 C 245.273438 93.96875 245.289062 93.898438 245.296875 93.824219 C 245.3125 93.683594 245.316406 93.546875 245.316406 93.40625 C 245.316406 93.382812 245.320312 93.359375 245.316406 93.335938 C 245.316406 93.25 245.296875 93.167969 245.289062 93.082031 Z M 245.292969 93.085938 " fill-opacity="1" fill-rule="nonzero"/></g><g clip-path="url(#34b14f6cfb)"><path fill="#000000" d="M 245.007812 238.8125 L 178.140625 136.742188 C 178.054688 136.613281 177.949219 136.5 177.835938 136.402344 C 177.824219 136.394531 177.820312 136.382812 177.808594 136.371094 C 177.800781 136.363281 177.789062 136.363281 177.78125 136.355469 C 177.65625 136.257812 177.519531 136.175781 177.375 136.117188 C 177.371094 136.117188 177.367188 136.117188 177.363281 136.117188 C 177.214844 136.058594 177.054688 136.023438 176.894531 136.011719 L 176.886719 136.011719 C 176.734375 136.003906 176.582031 136.019531 176.425781 136.054688 C 176.402344 136.0625 176.382812 136.066406 176.363281 136.074219 C 176.214844 136.117188 176.070312 136.171875 175.933594 136.257812 C 175.914062 136.273438 175.894531 136.28125 175.871094 136.292969 C 175.496094 136.527344 175.101562 136.722656 174.660156 136.878906 C 174.648438 136.886719 174.636719 136.890625 174.625 136.890625 C 174.550781 136.921875 174.472656 136.945312 174.394531 136.972656 L 174.378906 136.976562 C 174.316406 136.996094 174.242188 137.011719 174.175781 137.027344 C 174.066406 137.058594 173.953125 137.089844 173.835938 137.113281 C 173.671875 137.144531 173.492188 137.167969 173.308594 137.1875 C 173.304688 137.1875 173.296875 137.1875 173.292969 137.1875 C 173.164062 137.199219 173.035156 137.199219 172.90625 137.199219 C 172.859375 137.199219 172.816406 137.207031 172.773438 137.207031 L 172.75 137.207031 C 172.484375 137.199219 172.222656 137.171875 171.964844 137.121094 C 171.949219 137.121094 171.9375 137.121094 171.925781 137.117188 C 171.671875 137.070312 171.417969 136.996094 171.152344 136.902344 C 171.128906 136.890625 171.105469 136.886719 171.082031 136.878906 L 171.019531 136.859375 L 170.996094 136.847656 C 170.996094 136.847656 170.980469 136.84375 170.972656 136.839844 L 170.476562 136.613281 L 170.460938 136.605469 L 170.382812 136.761719 L 170.207031 137.039062 L 170.382812 136.5625 C 170.320312 136.53125 170.261719 136.492188 170.203125 136.457031 C 169.671875 136.15625 169.152344 135.769531 168.652344 135.285156 C 168.140625 134.808594 167.671875 134.230469 167.210938 133.539062 C 167.183594 133.5 167.15625 133.464844 167.128906 133.425781 L 142.449219 95.0625 L 138.859375 89.484375 C 138.664062 89.1875 138.429688 88.921875 138.160156 88.699219 C 138.101562 88.652344 138.035156 88.613281 137.976562 88.570312 C 137.894531 88.511719 137.816406 88.449219 137.730469 88.398438 C 137.648438 88.347656 137.558594 88.308594 137.472656 88.269531 C 137.402344 88.234375 137.335938 88.191406 137.261719 88.160156 L 137.257812 88.160156 C 137.191406 88.132812 137.125 88.113281 137.058594 88.089844 C 136.988281 88.066406 136.921875 88.039062 136.851562 88.019531 C 136.832031 88.011719 136.8125 88.011719 136.792969 88.007812 C 136.363281 87.894531 135.914062 87.867188 135.472656 87.925781 C 134.933594 88 134.402344 88.191406 133.921875 88.503906 L 132.804688 89.238281 L 130.898438 90.488281 C 130.769531 90.570312 130.652344 90.664062 130.539062 90.761719 C 130.53125 90.769531 130.519531 90.773438 130.511719 90.78125 C 130.414062 90.867188 130.328125 90.960938 130.238281 91.054688 C 130.21875 91.078125 130.195312 91.097656 130.171875 91.125 C 129.960938 91.367188 129.78125 91.640625 129.644531 91.9375 C 129.601562 92.027344 129.570312 92.125 129.53125 92.21875 C 129.339844 92.734375 129.269531 93.28125 129.328125 93.828125 L 129.328125 93.832031 C 129.355469 94.074219 129.414062 94.308594 129.488281 94.539062 C 129.496094 94.570312 129.507812 94.609375 129.519531 94.644531 C 129.523438 94.65625 129.527344 94.667969 129.535156 94.683594 C 129.625 94.929688 129.742188 95.164062 129.882812 95.382812 L 130.597656 96.46875 L 155.316406 134.015625 L 158.609375 139.019531 C 158.84375 139.375 159.050781 139.734375 159.230469 140.085938 L 159.238281 140.09375 C 159.253906 140.128906 159.269531 140.160156 159.28125 140.195312 C 159.445312 140.519531 159.582031 140.84375 159.695312 141.167969 C 159.824219 141.515625 159.925781 141.859375 160 142.203125 C 160 142.214844 160.007812 142.222656 160.011719 142.234375 C 160.027344 142.308594 160.039062 142.382812 160.050781 142.457031 C 160.074219 142.554688 160.09375 142.660156 160.109375 142.757812 C 160.109375 142.769531 160.109375 142.785156 160.113281 142.796875 C 160.136719 142.957031 160.152344 143.113281 160.164062 143.269531 C 160.164062 143.273438 160.164062 143.285156 160.164062 143.292969 C 160.164062 143.304688 160.164062 143.316406 160.164062 143.324219 C 160.164062 143.324219 160.164062 143.335938 160.164062 143.34375 C 160.171875 143.46875 160.175781 143.589844 160.171875 143.710938 C 160.171875 143.734375 160.171875 143.75 160.171875 143.773438 C 160.171875 143.851562 160.171875 143.9375 160.164062 144.015625 C 160.164062 144.023438 160.164062 144.03125 160.164062 144.042969 C 160.164062 144.050781 160.164062 144.054688 160.164062 144.058594 C 160.15625 144.105469 160.148438 144.222656 160.148438 144.246094 C 160.144531 144.308594 160.140625 144.363281 160.121094 144.484375 C 160.09375 144.703125 160.042969 144.9375 159.976562 145.175781 L 159.976562 145.179688 C 159.9375 145.3125 159.886719 145.429688 159.84375 145.554688 C 159.824219 145.605469 159.8125 145.652344 159.792969 145.703125 C 159.792969 145.703125 159.792969 145.710938 159.789062 145.714844 C 159.625 146.101562 159.398438 146.46875 159.136719 146.820312 C 159.066406 146.914062 159.007812 147.011719 158.929688 147.105469 C 158.566406 147.535156 158.136719 147.917969 157.652344 148.242188 C 156.921875 148.734375 156.71875 149.730469 157.199219 150.46875 L 183.8125 191.621094 C 183.03125 191.695312 182.257812 191.792969 181.488281 191.914062 C 179.191406 192.28125 176.96875 192.859375 174.828125 193.632812 C 176.382812 191.007812 177.632812 188.8125 178.488281 187.273438 L 178.253906 186.910156 C 177.109375 188.433594 175.402344 190.738281 173.375 193.589844 C 173.171875 193.875 172.96875 194.160156 172.761719 194.453125 C 159.632812 200.128906 150.421875 213.234375 150.421875 228.460938 L 150.421875 228.46875 C 149.34375 230.234375 148.34375 231.90625 147.4375 233.445312 C 144.121094 239.023438 142.074219 242.851562 142.074219 242.851562 C 142.074219 242.851562 144.746094 239.4375 148.507812 234.144531 C 149.152344 233.246094 149.832031 232.285156 150.535156 231.28125 C 150.839844 235.335938 151.789062 239.28125 153.390625 243.03125 C 153.578125 243.46875 153.769531 243.902344 153.972656 244.320312 C 154.089844 244.570312 154.214844 244.816406 154.335938 245.058594 L 149.8125 252.054688 C 149.746094 252.160156 149.609375 252.210938 149.492188 252.179688 L 146.378906 251.339844 C 145.316406 251.054688 144.3125 250.605469 143.386719 250 L 135.417969 244.777344 C 134.496094 244.171875 133.679688 243.429688 132.988281 242.566406 L 130.976562 240.050781 C 130.894531 239.945312 130.886719 239.804688 130.957031 239.695312 L 171.9375 177.140625 L 170.984375 175.664062 L 129.617188 238.8125 C 129.558594 238.898438 129.511719 238.992188 129.472656 239.082031 C 129.183594 239.730469 129.277344 240.488281 129.726562 241.054688 L 131.742188 243.574219 C 131.9375 243.820312 132.148438 244.066406 132.367188 244.296875 C 133.015625 244.992188 133.746094 245.605469 134.546875 246.125 L 142.515625 251.347656 C 142.875 251.582031 143.25 251.789062 143.625 251.984375 C 143.96875 252.160156 144.316406 252.316406 144.671875 252.457031 C 145.09375 252.625 145.527344 252.777344 145.964844 252.898438 L 149.082031 253.738281 C 149.234375 253.777344 149.390625 253.796875 149.546875 253.796875 C 149.554688 253.796875 149.5625 253.800781 149.574219 253.800781 C 149.648438 253.800781 149.71875 253.78125 149.789062 253.777344 C 149.855469 253.765625 149.929688 253.765625 149.996094 253.75 C 150.085938 253.730469 150.167969 253.691406 150.253906 253.660156 C 150.3125 253.636719 150.367188 253.621094 150.421875 253.597656 C 150.503906 253.554688 150.574219 253.503906 150.648438 253.453125 C 150.691406 253.425781 150.734375 253.40625 150.773438 253.371094 C 150.789062 253.359375 150.804688 253.34375 150.816406 253.332031 C 150.847656 253.304688 150.875 253.277344 150.902344 253.25 C 151 253.15625 151.089844 253.054688 151.164062 252.9375 L 151.167969 252.9375 L 155.207031 246.6875 C 155.359375 246.960938 155.515625 247.234375 155.675781 247.503906 L 155.933594 247.933594 C 156.09375 248.1875 156.261719 248.4375 156.421875 248.691406 C 156.539062 248.871094 156.648438 249.050781 156.773438 249.230469 C 157.558594 250.390625 158.414062 251.515625 159.324219 252.574219 C 159.8125 253.144531 160.332031 253.71875 160.878906 254.28125 C 161.585938 255.007812 162.316406 255.707031 163.066406 256.363281 L 163.363281 256.617188 C 164.183594 257.324219 165.039062 257.996094 165.910156 258.613281 L 166.03125 258.703125 C 167.675781 259.871094 169.425781 260.910156 171.246094 261.796875 C 172.132812 262.226562 173.039062 262.621094 173.9375 262.972656 C 178.199219 264.636719 182.699219 265.484375 187.3125 265.484375 C 200.164062 265.484375 211.585938 258.820312 218.199219 248.683594 C 218.625 248.03125 219.03125 247.363281 219.414062 246.679688 L 223.457031 252.929688 C 223.457031 252.929688 223.457031 252.933594 223.457031 252.9375 C 223.535156 253.058594 223.628906 253.164062 223.726562 253.257812 C 223.75 253.28125 223.773438 253.308594 223.796875 253.328125 C 223.8125 253.34375 223.828125 253.363281 223.84375 253.375 C 223.890625 253.414062 223.945312 253.4375 223.992188 253.46875 C 224.058594 253.515625 224.121094 253.5625 224.191406 253.597656 C 224.257812 253.628906 224.324219 253.648438 224.390625 253.675781 C 224.46875 253.703125 224.539062 253.734375 224.617188 253.753906 C 224.699219 253.769531 224.78125 253.777344 224.863281 253.785156 C 224.925781 253.789062 224.984375 253.808594 225.046875 253.808594 C 225.054688 253.808594 225.0625 253.808594 225.070312 253.808594 C 225.226562 253.808594 225.386719 253.785156 225.539062 253.746094 L 228.652344 252.90625 C 229.226562 252.75 229.789062 252.550781 230.335938 252.3125 C 230.367188 252.296875 230.40625 252.285156 230.4375 252.269531 C 231.015625 252.011719 231.574219 251.703125 232.109375 251.355469 L 240.078125 246.136719 C 240.742188 245.699219 241.355469 245.195312 241.917969 244.636719 C 242.257812 244.300781 242.585938 243.953125 242.882812 243.578125 L 244.894531 241.0625 C 245.371094 240.46875 245.441406 239.664062 245.101562 238.996094 C 245.070312 238.9375 245.039062 238.875 245.003906 238.816406 Z M 152.328125 228.460938 C 152.328125 209.074219 167.992188 193.355469 187.3125 193.355469 C 197.03125 193.355469 205.820312 197.332031 212.164062 203.753906 C 212.03125 203.988281 211.914062 204.253906 211.902344 204.558594 C 211.882812 204.984375 212.0625 205.359375 212.21875 205.6875 C 212.300781 205.851562 212.421875 206.101562 212.410156 206.195312 C 212.398438 206.289062 212.21875 206.507812 212.105469 206.648438 C 211.871094 206.933594 211.605469 207.25 211.527344 207.667969 C 211.445312 208.089844 211.574219 208.480469 211.6875 208.828125 C 211.746094 209.007812 211.832031 209.269531 211.8125 209.363281 C 211.785156 209.457031 211.582031 209.644531 211.445312 209.769531 C 211.179688 210.019531 210.875 210.300781 210.742188 210.710938 C 210.609375 211.121094 210.6875 211.527344 210.757812 211.886719 C 210.789062 212.070312 210.84375 212.34375 210.808594 212.433594 C 210.777344 212.519531 210.550781 212.683594 210.402344 212.792969 C 210.105469 213.011719 209.769531 213.253906 209.589844 213.648438 C 209.410156 214.039062 209.441406 214.453125 209.46875 214.820312 C 209.484375 215.007812 209.503906 215.285156 209.460938 215.371094 C 209.417969 215.453125 209.175781 215.589844 209.019531 215.683594 C 208.703125 215.871094 208.335938 216.082031 208.117188 216.457031 C 207.898438 216.828125 207.886719 217.246094 207.882812 217.613281 C 207.878906 217.796875 207.875 218.078125 207.820312 218.160156 C 207.769531 218.238281 207.519531 218.355469 207.351562 218.429688 C 207.015625 218.589844 206.636719 218.765625 206.378906 219.117188 C 206.128906 219.46875 206.082031 219.890625 206.046875 220.257812 C 206.027344 220.441406 206 220.71875 205.9375 220.796875 C 205.882812 220.871094 205.621094 220.964844 205.449219 221.03125 C 205.101562 221.15625 204.707031 221.304688 204.425781 221.640625 C 204.148438 221.972656 204.070312 222.386719 204.003906 222.753906 C 203.972656 222.941406 203.921875 223.210938 203.859375 223.28125 C 203.796875 223.351562 203.527344 223.429688 203.351562 223.480469 C 202.992188 223.585938 202.589844 223.703125 202.285156 224.019531 C 201.984375 224.332031 201.882812 224.742188 201.792969 225.101562 C 201.742188 225.292969 201.679688 225.554688 201.609375 225.621094 C 201.542969 225.6875 201.273438 225.746094 201.09375 225.785156 C 200.730469 225.871094 200.320312 225.960938 199.996094 226.257812 C 199.675781 226.554688 199.546875 226.957031 199.433594 227.3125 C 199.375 227.496094 199.296875 227.753906 199.222656 227.816406 C 199.152344 227.878906 198.878906 227.925781 198.695312 227.953125 C 198.328125 228.015625 197.910156 228.082031 197.570312 228.363281 C 197.234375 228.636719 197.085938 229.039062 196.953125 229.386719 C 196.882812 229.566406 196.789062 229.820312 196.710938 229.878906 C 196.636719 229.9375 196.363281 229.96875 196.179688 229.992188 C 195.808594 230.03125 195.390625 230.078125 195.035156 230.339844 C 194.683594 230.605469 194.515625 230.992188 194.367188 231.332031 C 194.292969 231.5 194.1875 231.757812 194.105469 231.8125 C 194.03125 231.867188 193.75 231.882812 193.570312 231.894531 C 193.195312 231.917969 192.773438 231.945312 192.410156 232.1875 C 192.042969 232.433594 191.859375 232.8125 191.691406 233.148438 C 191.613281 233.316406 191.492188 233.5625 191.410156 233.613281 C 191.328125 233.667969 191.050781 233.671875 190.867188 233.675781 C 190.492188 233.679688 190.070312 233.6875 189.695312 233.917969 C 189.316406 234.144531 189.113281 234.519531 188.9375 234.847656 C 188.847656 235.007812 188.71875 235.253906 188.632812 235.296875 C 188.546875 235.347656 188.28125 235.335938 188.085938 235.335938 C 187.714844 235.328125 187.289062 235.316406 186.90625 235.527344 C 186.519531 235.738281 186.296875 236.101562 186.105469 236.421875 C 186.011719 236.578125 185.867188 236.816406 185.785156 236.859375 C 185.695312 236.902344 185.429688 236.882812 185.234375 236.871094 C 184.863281 236.84375 184.441406 236.8125 184.050781 237.007812 C 183.65625 237.203125 183.417969 237.554688 183.210938 237.867188 C 183.109375 238.019531 182.957031 238.25 182.871094 238.289062 C 182.78125 238.328125 182.515625 238.300781 182.320312 238.277344 C 181.953125 238.234375 181.53125 238.1875 181.132812 238.363281 C 180.726562 238.539062 180.472656 238.886719 180.253906 239.1875 C 180.148438 239.335938 179.984375 239.558594 179.898438 239.59375 C 179.804688 239.628906 179.542969 239.589844 179.347656 239.554688 C 178.980469 239.5 178.566406 239.429688 178.15625 239.585938 C 177.746094 239.746094 177.480469 240.078125 177.246094 240.371094 C 177.132812 240.515625 176.957031 240.726562 176.871094 240.757812 C 176.777344 240.792969 176.515625 240.738281 176.320312 240.695312 C 175.957031 240.621094 175.546875 240.535156 175.132812 240.671875 C 174.714844 240.8125 174.433594 241.128906 174.179688 241.410156 C 174.058594 241.542969 173.878906 241.75 173.789062 241.777344 C 173.691406 241.804688 173.429688 241.738281 173.242188 241.6875 C 172.886719 241.59375 172.480469 241.484375 172.0625 241.597656 C 171.636719 241.710938 171.335938 242.015625 171.074219 242.28125 C 170.945312 242.410156 170.753906 242.605469 170.664062 242.628906 C 170.566406 242.648438 170.308594 242.566406 170.121094 242.503906 C 169.773438 242.386719 169.378906 242.257812 168.953125 242.34375 C 168.523438 242.4375 168.203125 242.714844 167.921875 242.964844 C 167.785156 243.082031 167.582031 243.265625 167.492188 243.28125 C 167.394531 243.296875 167.140625 243.195312 166.957031 243.117188 C 166.617188 242.976562 166.238281 242.820312 165.8125 242.871094 C 165.375 242.929688 165.035156 243.183594 164.738281 243.40625 C 164.601562 243.507812 164.371094 243.675781 164.289062 243.683594 C 164.183594 243.695312 163.941406 243.5625 163.765625 243.46875 C 163.445312 243.300781 163.085938 243.109375 162.660156 243.117188 C 162.222656 243.128906 161.859375 243.34375 161.542969 243.53125 C 161.398438 243.617188 161.148438 243.757812 161.070312 243.757812 C 160.964844 243.753906 160.738281 243.589844 160.574219 243.472656 C 160.28125 243.269531 159.957031 243.035156 159.550781 242.988281 C 159.121094 242.933594 158.734375 243.082031 158.394531 243.21875 C 158.234375 243.277344 157.980469 243.378906 157.898438 243.363281 C 157.792969 243.339844 157.601562 243.132812 157.460938 242.980469 C 157.226562 242.730469 156.964844 242.445312 156.597656 242.3125 C 156.210938 242.167969 155.8125 242.207031 155.460938 242.242188 C 155.367188 242.25 155.242188 242.265625 155.136719 242.269531 C 153.324219 238.027344 152.320312 233.355469 152.320312 228.449219 Z M 157.304688 246.515625 C 157.285156 246.472656 157.265625 246.433594 157.25 246.394531 C 157.125 246.09375 156.984375 245.757812 156.71875 245.503906 C 156.355469 244.851562 156.011719 244.183594 155.691406 243.503906 C 155.878906 243.488281 156.066406 243.476562 156.164062 243.511719 C 156.25 243.542969 156.414062 243.722656 156.535156 243.855469 C 156.804688 244.140625 157.136719 244.5 157.621094 244.613281 C 158.070312 244.710938 158.488281 244.550781 158.851562 244.414062 C 159.042969 244.339844 159.28125 244.246094 159.398438 244.257812 C 159.488281 244.269531 159.699219 244.421875 159.84375 244.519531 C 160.152344 244.742188 160.539062 245.015625 161.023438 245.039062 C 161.039062 245.039062 161.054688 245.039062 161.074219 245.039062 C 161.503906 245.039062 161.863281 244.824219 162.179688 244.636719 C 162.359375 244.53125 162.582031 244.398438 162.695312 244.394531 C 162.789062 244.394531 163.019531 244.519531 163.171875 244.597656 C 163.503906 244.773438 163.917969 244.992188 164.386719 244.953125 C 164.835938 244.917969 165.183594 244.65625 165.488281 244.429688 C 165.65625 244.308594 165.863281 244.152344 165.96875 244.140625 C 166.0625 244.128906 166.308594 244.230469 166.472656 244.296875 C 166.8125 244.441406 167.242188 244.617188 167.699219 244.539062 C 168.144531 244.464844 168.46875 244.179688 168.753906 243.929688 C 168.902344 243.800781 169.101562 243.621094 169.203125 243.601562 C 169.296875 243.578125 169.550781 243.664062 169.722656 243.722656 C 170.070312 243.839844 170.507812 243.980469 170.957031 243.875 C 171.394531 243.769531 171.699219 243.460938 171.96875 243.191406 C 172.105469 243.050781 172.292969 242.863281 172.394531 242.835938 C 172.484375 242.808594 172.734375 242.875 172.917969 242.925781 C 173.292969 243.023438 173.714844 243.136719 174.15625 243.003906 C 174.585938 242.871094 174.871094 242.550781 175.125 242.265625 C 175.253906 242.121094 175.429688 241.921875 175.527344 241.886719 C 175.621094 241.859375 175.875 241.914062 176.058594 241.953125 C 176.4375 242.027344 176.863281 242.121094 177.292969 241.964844 C 177.71875 241.8125 177.988281 241.476562 178.226562 241.179688 C 178.347656 241.027344 178.515625 240.820312 178.609375 240.78125 C 178.699219 240.746094 178.957031 240.789062 179.148438 240.820312 C 179.523438 240.882812 179.957031 240.949219 180.378906 240.777344 C 180.792969 240.605469 181.046875 240.253906 181.273438 239.945312 C 181.386719 239.789062 181.542969 239.574219 181.636719 239.53125 C 181.726562 239.492188 181.988281 239.523438 182.175781 239.542969 C 182.558594 239.585938 182.988281 239.636719 183.402344 239.445312 C 183.808594 239.257812 184.050781 238.894531 184.261719 238.574219 C 184.367188 238.410156 184.511719 238.191406 184.605469 238.148438 C 184.691406 238.105469 184.953125 238.121094 185.144531 238.136719 C 185.527344 238.160156 185.960938 238.191406 186.363281 237.984375 C 186.765625 237.777344 186.984375 237.40625 187.183594 237.078125 C 187.285156 236.910156 187.421875 236.683594 187.507812 236.636719 C 187.59375 236.589844 187.859375 236.597656 188.050781 236.605469 C 188.433594 236.617188 188.863281 236.625 189.257812 236.398438 C 189.648438 236.171875 189.855469 235.792969 190.039062 235.453125 C 190.128906 235.285156 190.257812 235.050781 190.34375 235 C 190.429688 234.949219 190.691406 234.945312 190.882812 234.945312 C 191.265625 234.9375 191.699219 234.929688 192.082031 234.6875 C 192.464844 234.445312 192.652344 234.054688 192.824219 233.710938 C 192.910156 233.535156 193.027344 233.296875 193.109375 233.242188 C 193.191406 233.1875 193.457031 233.171875 193.644531 233.160156 C 194.027344 233.132812 194.460938 233.109375 194.832031 232.847656 C 195.199219 232.585938 195.375 232.1875 195.527344 231.835938 C 195.605469 231.660156 195.710938 231.417969 195.789062 231.355469 C 195.867188 231.296875 196.128906 231.269531 196.324219 231.246094 C 196.703125 231.203125 197.132812 231.152344 197.492188 230.878906 C 197.847656 230.597656 198.003906 230.191406 198.140625 229.832031 C 198.207031 229.652344 198.296875 229.402344 198.375 229.339844 C 198.453125 229.277344 198.714844 229.234375 198.902344 229.203125 C 199.28125 229.140625 199.710938 229.070312 200.050781 228.773438 C 200.394531 228.472656 200.527344 228.058594 200.644531 227.6875 C 200.699219 227.507812 200.78125 227.253906 200.851562 227.191406 C 200.925781 227.121094 201.183594 227.0625 201.371094 227.019531 C 201.746094 226.9375 202.167969 226.839844 202.492188 226.523438 C 202.820312 226.207031 202.925781 225.78125 203.019531 225.40625 C 203.066406 225.222656 203.128906 224.964844 203.199219 224.898438 C 203.269531 224.824219 203.523438 224.75 203.707031 224.695312 C 204.074219 224.589844 204.496094 224.46875 204.796875 224.132812 C 205.101562 223.789062 205.179688 223.359375 205.25 222.976562 C 205.285156 222.789062 205.332031 222.53125 205.394531 222.457031 C 205.457031 222.378906 205.707031 222.289062 205.886719 222.21875 C 206.25 222.085938 206.65625 221.933594 206.9375 221.574219 C 207.21875 221.210938 207.265625 220.773438 207.304688 220.386719 C 207.324219 220.195312 207.355469 219.933594 207.410156 219.855469 C 207.46875 219.773438 207.710938 219.660156 207.882812 219.582031 C 208.230469 219.417969 208.628906 219.234375 208.878906 218.851562 C 209.128906 218.460938 209.140625 218.023438 209.148438 217.632812 C 209.152344 217.441406 209.15625 217.179688 209.203125 217.097656 C 209.253906 217.007812 209.484375 216.878906 209.652344 216.78125 C 209.984375 216.585938 210.363281 216.367188 210.578125 215.957031 C 210.792969 215.546875 210.757812 215.105469 210.726562 214.714844 C 210.714844 214.523438 210.691406 214.265625 210.734375 214.175781 C 210.777344 214.082031 210.988281 213.929688 211.144531 213.8125 C 211.457031 213.585938 211.816406 213.328125 211.984375 212.894531 C 212.15625 212.460938 212.070312 212.027344 211.996094 211.640625 C 211.957031 211.453125 211.910156 211.195312 211.941406 211.101562 C 211.972656 211.003906 212.167969 210.828125 212.304688 210.695312 C 212.59375 210.433594 212.917969 210.128906 213.03125 209.683594 C 213.148438 209.230469 213.011719 208.804688 212.890625 208.433594 C 212.832031 208.253906 212.75 208 212.769531 207.90625 C 212.789062 207.804688 212.953125 207.601562 213.074219 207.457031 C 213.324219 207.15625 213.609375 206.808594 213.667969 206.347656 C 213.722656 205.886719 213.527344 205.484375 213.355469 205.128906 C 213.324219 205.0625 213.28125 204.980469 213.25 204.902344 C 214.089844 205.828125 214.878906 206.800781 215.609375 207.8125 C 215.625 208.203125 215.792969 208.542969 215.945312 208.847656 C 216.03125 209.019531 216.160156 209.28125 216.148438 209.378906 C 216.136719 209.480469 215.960938 209.695312 215.832031 209.855469 C 215.597656 210.144531 215.332031 210.472656 215.253906 210.898438 C 215.179688 211.328125 215.3125 211.726562 215.433594 212.082031 C 215.496094 212.273438 215.585938 212.539062 215.5625 212.636719 C 215.535156 212.734375 215.328125 212.933594 215.191406 213.0625 C 214.917969 213.320312 214.609375 213.613281 214.480469 214.027344 C 214.347656 214.441406 214.429688 214.859375 214.503906 215.222656 C 214.546875 215.421875 214.597656 215.695312 214.5625 215.792969 C 214.527344 215.886719 214.296875 216.058594 214.144531 216.171875 C 213.84375 216.398438 213.503906 216.652344 213.320312 217.050781 C 213.140625 217.449219 213.179688 217.871094 213.210938 218.246094 C 213.230469 218.449219 213.253906 218.726562 213.207031 218.820312 C 213.160156 218.90625 212.914062 219.054688 212.75 219.148438 C 212.425781 219.339844 212.058594 219.5625 211.839844 219.941406 C 211.621094 220.324219 211.613281 220.75 211.613281 221.125 C 211.613281 221.328125 211.605469 221.605469 211.550781 221.695312 C 211.5 221.777344 211.25 221.898438 211.066406 221.980469 C 210.726562 222.144531 210.339844 222.328125 210.082031 222.6875 C 209.828125 223.046875 209.789062 223.472656 209.753906 223.851562 C 209.734375 224.050781 209.707031 224.328125 209.644531 224.410156 C 209.582031 224.492188 209.328125 224.589844 209.140625 224.660156 C 208.785156 224.792969 208.382812 224.945312 208.097656 225.289062 C 207.816406 225.628906 207.746094 226.054688 207.679688 226.425781 C 207.648438 226.625 207.597656 226.898438 207.53125 226.980469 C 207.464844 227.054688 207.199219 227.132812 207.007812 227.191406 C 206.644531 227.300781 206.230469 227.425781 205.925781 227.75 C 205.621094 228.070312 205.519531 228.488281 205.429688 228.855469 C 205.382812 229.050781 205.316406 229.324219 205.242188 229.394531 C 205.171875 229.464844 204.902344 229.527344 204.707031 229.574219 C 204.339844 229.660156 203.917969 229.757812 203.589844 230.066406 C 203.265625 230.367188 203.140625 230.78125 203.03125 231.144531 C 202.972656 231.339844 202.890625 231.605469 202.8125 231.671875 C 202.734375 231.742188 202.464844 231.785156 202.265625 231.820312 C 201.890625 231.886719 201.46875 231.960938 201.125 232.246094 C 200.78125 232.53125 200.636719 232.9375 200.503906 233.296875 C 200.4375 233.488281 200.34375 233.746094 200.257812 233.8125 C 200.179688 233.875 199.90625 233.910156 199.707031 233.933594 C 199.332031 233.976562 198.902344 234.027344 198.546875 234.300781 C 198.191406 234.566406 198.023438 234.96875 197.875 235.316406 C 197.796875 235.503906 197.6875 235.761719 197.605469 235.820312 C 197.523438 235.878906 197.246094 235.898438 197.046875 235.914062 C 196.667969 235.941406 196.238281 235.972656 195.867188 236.226562 C 195.5 236.476562 195.3125 236.867188 195.148438 237.210938 C 195.0625 237.394531 194.941406 237.640625 194.855469 237.699219 C 194.769531 237.757812 194.492188 237.761719 194.292969 237.769531 C 193.914062 237.777344 193.480469 237.789062 193.101562 238.023438 C 192.722656 238.257812 192.519531 238.644531 192.339844 238.980469 C 192.246094 239.15625 192.113281 239.402344 192.027344 239.453125 C 191.933594 239.507812 191.660156 239.5 191.460938 239.5 C 191.078125 239.488281 190.648438 239.484375 190.257812 239.703125 C 189.867188 239.921875 189.648438 240.292969 189.449219 240.621094 C 189.347656 240.796875 189.207031 241.03125 189.117188 241.082031 C 189.023438 241.128906 188.75 241.113281 188.546875 241.101562 C 188.167969 241.078125 187.738281 241.054688 187.339844 241.253906 C 186.9375 241.457031 186.703125 241.816406 186.492188 242.140625 C 186.378906 242.308594 186.234375 242.539062 186.140625 242.582031 C 186.046875 242.628906 185.773438 242.597656 185.570312 242.578125 C 185.191406 242.539062 184.761719 242.492188 184.359375 242.675781 C 183.949219 242.859375 183.699219 243.214844 183.476562 243.527344 C 183.359375 243.6875 183.199219 243.910156 183.105469 243.949219 C 183.011719 243.992188 182.738281 243.949219 182.535156 243.921875 C 182.160156 243.863281 181.738281 243.800781 181.320312 243.964844 C 180.902344 244.128906 180.636719 244.472656 180.402344 244.773438 C 180.277344 244.929688 180.109375 245.144531 180.015625 245.179688 C 179.914062 245.21875 179.640625 245.164062 179.441406 245.121094 C 179.074219 245.046875 178.652344 244.964844 178.230469 245.109375 C 177.808594 245.253906 177.519531 245.578125 177.269531 245.871094 C 177.140625 246.019531 176.960938 246.226562 176.867188 246.253906 C 176.765625 246.285156 176.496094 246.21875 176.296875 246.167969 C 175.933594 246.074219 175.515625 245.96875 175.09375 246.089844 C 174.660156 246.210938 174.359375 246.523438 174.089844 246.796875 C 173.960938 246.929688 173.761719 247.132812 173.667969 247.15625 C 173.5625 247.183594 173.292969 247.097656 173.101562 247.035156 C 172.742188 246.917969 172.339844 246.789062 171.910156 246.882812 C 171.46875 246.976562 171.148438 247.265625 170.863281 247.519531 C 170.726562 247.648438 170.515625 247.835938 170.421875 247.851562 C 170.3125 247.871094 170.050781 247.765625 169.863281 247.6875 C 169.515625 247.550781 169.121094 247.390625 168.695312 247.449219 C 168.253906 247.511719 167.910156 247.773438 167.605469 248.003906 C 167.457031 248.117188 167.230469 248.289062 167.136719 248.296875 C 167.023438 248.304688 166.773438 248.175781 166.589844 248.082031 C 166.261719 247.910156 165.890625 247.714844 165.464844 247.730469 C 165.019531 247.75 164.652344 247.96875 164.328125 248.164062 C 164.179688 248.257812 163.933594 248.402344 163.839844 248.402344 C 163.726562 248.398438 163.488281 248.234375 163.320312 248.113281 C 163.019531 247.90625 162.683594 247.671875 162.269531 247.625 C 161.835938 247.578125 161.441406 247.734375 161.09375 247.875 C 160.929688 247.9375 160.660156 248.046875 160.578125 248.027344 C 160.464844 248.003906 160.265625 247.792969 160.117188 247.636719 C 159.878906 247.382812 159.609375 247.09375 159.234375 246.960938 C 158.839844 246.816406 158.433594 246.863281 158.078125 246.902344 C 157.910156 246.917969 157.632812 246.949219 157.546875 246.917969 C 157.464844 246.785156 157.382812 246.652344 157.304688 246.515625 Z M 164.601562 255.160156 C 163.78125 254.460938 162.996094 253.71875 162.242188 252.945312 C 162.382812 252.96875 162.527344 252.988281 162.671875 253.007812 L 162.839844 251.75 C 162.105469 251.652344 161.410156 251.507812 160.769531 251.324219 C 159.902344 250.316406 159.09375 249.253906 158.347656 248.152344 C 158.53125 248.132812 158.714844 248.121094 158.808594 248.15625 C 158.902344 248.1875 159.074219 248.375 159.203125 248.511719 C 159.476562 248.800781 159.820312 249.167969 160.316406 249.273438 C 160.773438 249.371094 161.191406 249.203125 161.566406 249.054688 C 161.773438 248.972656 162.015625 248.875 162.136719 248.890625 C 162.234375 248.902344 162.445312 249.050781 162.601562 249.160156 C 162.921875 249.378906 163.316406 249.65625 163.808594 249.675781 L 163.847656 249.675781 C 164.289062 249.675781 164.65625 249.453125 164.984375 249.253906 C 165.164062 249.144531 165.394531 249.007812 165.515625 249 L 165.519531 249 C 165.617188 249 165.847656 249.121094 166.015625 249.207031 C 166.355469 249.382812 166.78125 249.601562 167.253906 249.558594 C 167.710938 249.515625 168.0625 249.25 168.371094 249.011719 C 168.542969 248.882812 168.753906 248.722656 168.871094 248.703125 C 168.964844 248.691406 169.214844 248.789062 169.394531 248.863281 C 169.765625 249.011719 170.183594 249.179688 170.648438 249.097656 C 171.097656 249.019531 171.425781 248.722656 171.71875 248.460938 C 171.875 248.320312 172.074219 248.144531 172.183594 248.117188 C 172.28125 248.097656 172.535156 248.179688 172.71875 248.238281 C 173.097656 248.359375 173.523438 248.492188 173.976562 248.382812 C 174.421875 248.269531 174.726562 247.953125 175 247.679688 C 175.148438 247.523438 175.335938 247.335938 175.441406 247.304688 C 175.539062 247.277344 175.800781 247.34375 175.988281 247.394531 C 176.371094 247.488281 176.800781 247.601562 177.25 247.460938 C 177.683594 247.328125 177.972656 246.992188 178.230469 246.699219 C 178.367188 246.539062 178.542969 246.339844 178.648438 246.304688 C 178.742188 246.273438 179.007812 246.328125 179.199219 246.363281 C 179.585938 246.441406 180.023438 246.527344 180.457031 246.367188 C 180.886719 246.207031 181.160156 245.863281 181.398438 245.554688 C 181.523438 245.398438 181.695312 245.183594 181.792969 245.144531 C 181.886719 245.105469 182.15625 245.144531 182.351562 245.175781 C 182.738281 245.234375 183.175781 245.300781 183.601562 245.121094 C 184.023438 244.941406 184.277344 244.582031 184.503906 244.265625 C 184.621094 244.101562 184.785156 243.875 184.878906 243.832031 C 184.972656 243.789062 185.242188 243.820312 185.441406 243.839844 C 185.832031 243.878906 186.273438 243.929688 186.691406 243.726562 C 187.101562 243.53125 187.34375 243.160156 187.558594 242.832031 C 187.667969 242.664062 187.816406 242.4375 187.914062 242.386719 C 188.007812 242.34375 188.277344 242.359375 188.476562 242.371094 C 188.863281 242.394531 189.308594 242.421875 189.714844 242.207031 C 190.117188 241.992188 190.34375 241.609375 190.542969 241.273438 C 190.644531 241.101562 190.785156 240.863281 190.878906 240.8125 C 190.96875 240.757812 191.242188 240.765625 191.441406 240.769531 C 191.828125 240.773438 192.273438 240.78125 192.671875 240.546875 C 193.066406 240.3125 193.273438 239.921875 193.457031 239.582031 C 193.550781 239.40625 193.683594 239.164062 193.769531 239.109375 C 193.863281 239.054688 194.132812 239.046875 194.332031 239.039062 C 194.71875 239.03125 195.164062 239.019531 195.550781 238.769531 C 195.933594 238.519531 196.128906 238.117188 196.292969 237.765625 C 196.378906 237.585938 196.5 237.335938 196.585938 237.277344 C 196.671875 237.21875 196.945312 237.195312 197.140625 237.183594 C 197.53125 237.15625 197.972656 237.121094 198.34375 236.855469 C 198.71875 236.585938 198.890625 236.175781 199.042969 235.816406 C 199.121094 235.632812 199.226562 235.378906 199.308594 235.316406 C 199.394531 235.253906 199.664062 235.222656 199.863281 235.199219 C 200.25 235.148438 200.691406 235.097656 201.050781 234.8125 C 201.410156 234.523438 201.5625 234.109375 201.699219 233.738281 C 201.765625 233.550781 201.859375 233.296875 201.941406 233.226562 C 202.023438 233.160156 202.289062 233.113281 202.488281 233.078125 C 202.871094 233.011719 203.308594 232.9375 203.652344 232.632812 C 204 232.324219 204.132812 231.898438 204.246094 231.523438 C 204.300781 231.332031 204.382812 231.070312 204.457031 231 C 204.539062 230.925781 204.800781 230.867188 204.996094 230.820312 C 205.378906 230.730469 205.808594 230.632812 206.132812 230.308594 C 206.464844 229.980469 206.570312 229.546875 206.660156 229.164062 C 206.707031 228.96875 206.769531 228.703125 206.84375 228.628906 C 206.917969 228.554688 207.179688 228.472656 207.367188 228.417969 C 207.742188 228.300781 208.167969 228.175781 208.472656 227.832031 C 208.785156 227.484375 208.859375 227.042969 208.925781 226.652344 C 208.960938 226.453125 209.003906 226.1875 209.074219 226.105469 C 209.140625 226.023438 209.386719 225.929688 209.585938 225.855469 C 209.953125 225.714844 210.367188 225.558594 210.648438 225.191406 C 210.933594 224.820312 210.976562 224.371094 211.011719 223.976562 C 211.03125 223.78125 211.058594 223.511719 211.117188 223.425781 C 211.179688 223.335938 211.414062 223.226562 211.605469 223.132812 C 211.960938 222.964844 212.363281 222.773438 212.613281 222.382812 C 212.867188 221.988281 212.867188 221.539062 212.875 221.140625 C 212.875 220.945312 212.878906 220.671875 212.929688 220.582031 C 212.984375 220.488281 213.210938 220.355469 213.390625 220.246094 C 213.730469 220.042969 214.117188 219.816406 214.328125 219.402344 C 214.546875 218.980469 214.503906 218.53125 214.46875 218.136719 C 214.453125 217.9375 214.429688 217.671875 214.46875 217.574219 C 214.515625 217.472656 214.722656 217.320312 214.890625 217.195312 C 215.210938 216.957031 215.570312 216.6875 215.738281 216.253906 C 215.910156 215.808594 215.820312 215.367188 215.738281 214.976562 C 215.699219 214.78125 215.644531 214.515625 215.679688 214.414062 C 215.710938 214.3125 215.902344 214.132812 216.054688 213.992188 C 216.34375 213.71875 216.671875 213.40625 216.785156 212.949219 C 216.898438 212.492188 216.757812 212.058594 216.628906 211.679688 C 216.5625 211.484375 216.476562 211.238281 216.496094 211.128906 C 216.519531 211.023438 216.679688 210.824219 216.808594 210.660156 C 216.933594 210.507812 217.066406 210.347656 217.175781 210.164062 C 217.820312 211.21875 218.40625 212.3125 218.9375 213.4375 C 218.835938 214.03125 218.714844 214.625 218.570312 215.210938 L 219.796875 215.515625 C 219.804688 215.492188 219.808594 215.472656 219.816406 215.449219 C 220.390625 216.898438 220.875 218.390625 221.253906 219.925781 C 220.078125 225.359375 216.996094 230.804688 212.167969 235.925781 C 206.601562 241.832031 198.839844 247.171875 190.304688 250.964844 C 184.304688 253.632812 178.21875 255.375 173.160156 255.867188 C 169.664062 256.207031 166.765625 255.964844 164.601562 255.160156 Z M 172.074219 260.066406 C 170.300781 259.203125 168.609375 258.191406 167.019531 257.054688 C 168.023438 257.207031 169.105469 257.28125 170.269531 257.28125 C 171.222656 257.28125 172.230469 257.230469 173.285156 257.125 C 178.46875 256.621094 184.699219 254.84375 190.820312 252.125 C 199.5 248.261719 207.410156 242.820312 213.089844 236.796875 C 216.273438 233.421875 218.738281 229.894531 220.417969 226.3125 C 220.976562 225.117188 221.449219 223.914062 221.832031 222.707031 C 222.085938 224.25 222.238281 225.828125 222.285156 227.433594 C 220.664062 231.578125 217.976562 235.679688 214.28125 239.597656 C 208.609375 245.617188 200.691406 251.058594 191.996094 254.925781 C 185.882812 257.644531 179.675781 259.417969 174.523438 259.921875 C 173.671875 260.003906 172.855469 260.050781 172.078125 260.070312 Z M 187.3125 263.5625 C 182.839844 263.5625 178.5625 262.722656 174.628906 261.183594 C 174.632812 261.183594 174.640625 261.183594 174.644531 261.183594 C 179.929688 260.667969 186.277344 258.859375 192.507812 256.089844 C 201.355469 252.15625 209.410156 246.609375 215.199219 240.472656 C 218.175781 237.3125 220.542969 234.015625 222.230469 230.675781 C 221.09375 249.03125 205.894531 263.5625 187.316406 263.5625 Z M 243.648438 240.050781 L 241.636719 242.566406 C 240.945312 243.429688 240.125 244.175781 239.203125 244.78125 L 231.234375 250.003906 C 230.308594 250.605469 229.304688 251.058594 228.242188 251.34375 L 225.132812 252.179688 C 225.007812 252.21875 224.875 252.164062 224.804688 252.054688 L 220.277344 245.054688 C 222.382812 240.863281 223.714844 236.214844 224.082031 231.285156 C 224.785156 232.285156 225.46875 233.246094 226.113281 234.148438 C 229.871094 239.4375 232.542969 242.855469 232.542969 242.855469 C 232.542969 242.855469 230.5 239.023438 227.183594 233.445312 C 226.277344 231.910156 225.273438 230.234375 224.199219 228.46875 C 224.199219 228.101562 224.191406 227.742188 224.179688 227.382812 C 224.132812 225.710938 223.972656 224.03125 223.703125 222.398438 C 223.539062 221.417969 223.339844 220.429688 223.097656 219.464844 C 222.699219 217.863281 222.1875 216.277344 221.578125 214.742188 C 221.296875 214.039062 220.984375 213.324219 220.65625 212.621094 C 220.101562 211.445312 219.472656 210.285156 218.792969 209.164062 C 218.277344 208.324219 217.722656 207.492188 217.144531 206.691406 C 216.378906 205.636719 215.539062 204.601562 214.65625 203.625 C 214.285156 203.207031 213.898438 202.804688 213.507812 202.40625 C 210.101562 198.960938 206.144531 196.273438 201.835938 194.421875 C 201.636719 194.140625 201.4375 193.863281 201.242188 193.589844 C 197.484375 188.296875 194.8125 184.882812 194.8125 184.882812 C 194.8125 184.882812 196.691406 188.402344 199.765625 193.601562 C 195.820312 192.183594 191.617188 191.445312 187.300781 191.445312 C 186.746094 191.445312 186.191406 191.464844 185.636719 191.488281 L 158.550781 149.578125 C 159.160156 149.167969 159.699219 148.683594 160.160156 148.140625 C 160.632812 147.578125 161.011719 146.96875 161.285156 146.3125 C 161.371094 146.09375 161.449219 145.871094 161.523438 145.628906 C 161.617188 145.300781 161.679688 144.984375 161.710938 144.746094 C 161.734375 144.625 161.746094 144.507812 161.753906 144.425781 C 161.765625 144.335938 161.773438 144.238281 161.769531 144.226562 C 161.785156 144.078125 161.789062 143.925781 161.789062 143.78125 C 161.792969 143.597656 161.789062 143.398438 161.777344 143.207031 C 161.777344 143.199219 161.777344 143.195312 161.777344 143.191406 C 161.777344 143.175781 161.777344 143.167969 161.777344 143.15625 C 161.71875 142.332031 161.53125 141.476562 161.222656 140.621094 C 160.929688 139.796875 160.503906 138.957031 159.957031 138.128906 L 131.226562 94.496094 C 131.0625 94.246094 130.957031 93.953125 130.921875 93.652344 C 130.886719 93.300781 130.941406 92.945312 131.09375 92.621094 C 131.246094 92.300781 131.480469 92.03125 131.777344 91.835938 L 133.519531 90.695312 L 136.371094 95.074219 C 134.960938 95.890625 133.613281 96.519531 133.613281 96.519531 L 135.289062 99.496094 C 135.289062 99.496094 136.667969 98.703125 138.089844 97.714844 L 182.558594 166.042969 C 182.769531 166.371094 183.273438 166.109375 183.128906 165.746094 C 180.539062 159.261719 175.269531 144.730469 177.132812 138.140625 L 243.664062 239.699219 C 243.734375 239.808594 243.730469 239.949219 243.648438 240.050781 Z M 243.648438 240.050781 " fill-opacity="1" fill-rule="nonzero"/></g><path fill="#000000" d="M 178.644531 251.027344 L 178.277344 249.8125 C 177.425781 250.070312 176.574219 250.308594 175.746094 250.519531 L 176.058594 251.75 C 176.90625 251.535156 177.777344 251.292969 178.644531 251.027344 Z M 178.644531 251.027344 " fill-opacity="1" fill-rule="nonzero"/><path fill="#000000" d="M 183.710938 249.273438 L 183.253906 248.089844 C 182.429688 248.410156 181.601562 248.714844 180.78125 249 L 181.195312 250.199219 C 182.027344 249.910156 182.875 249.601562 183.707031 249.273438 Z M 183.710938 249.273438 " fill-opacity="1" fill-rule="nonzero"/><path fill="#000000" d="M 202.40625 238.898438 L 201.648438 237.882812 C 200.953125 238.402344 200.234375 238.925781 199.507812 239.429688 L 200.230469 240.472656 C 200.96875 239.957031 201.699219 239.425781 202.410156 238.894531 Z M 202.40625 238.898438 " fill-opacity="1" fill-rule="nonzero"/><path fill="#000000" d="M 198.003906 241.972656 L 197.316406 240.90625 C 196.585938 241.378906 195.832031 241.847656 195.078125 242.296875 L 195.726562 243.386719 C 196.492188 242.925781 197.253906 242.453125 198.003906 241.972656 Z M 198.003906 241.972656 " fill-opacity="1" fill-rule="nonzero"/><path fill="#000000" d="M 173.441406 252.359375 L 173.1875 251.113281 C 172.3125 251.292969 171.441406 251.445312 170.605469 251.566406 L 170.789062 252.824219 C 171.648438 252.699219 172.542969 252.539062 173.441406 252.359375 Z M 173.441406 252.359375 " fill-opacity="1" fill-rule="nonzero"/><path fill="#000000" d="M 165.410156 251.9375 L 165.394531 253.207031 C 165.527344 253.207031 165.664062 253.207031 165.800781 253.207031 C 166.535156 253.207031 167.3125 253.179688 168.105469 253.121094 L 168.011719 251.855469 C 167.109375 251.921875 166.238281 251.949219 165.414062 251.9375 Z M 165.410156 251.9375 " fill-opacity="1" fill-rule="nonzero"/><path fill="#000000" d="M 206.5625 235.496094 L 205.726562 234.546875 C 205.078125 235.125 204.402344 235.695312 203.722656 236.257812 L 204.519531 237.238281 C 205.214844 236.671875 205.90625 236.085938 206.5625 235.496094 Z M 206.5625 235.496094 " fill-opacity="1" fill-rule="nonzero"/><path fill="#000000" d="M 210.414062 231.746094 L 209.492188 230.878906 C 208.90625 231.507812 208.285156 232.136719 207.652344 232.753906 L 208.535156 233.667969 C 209.183594 233.035156 209.816406 232.390625 210.414062 231.746094 Z M 210.414062 231.746094 " fill-opacity="1" fill-rule="nonzero"/><path fill="#000000" d="M 193.410156 244.71875 L 192.796875 243.609375 C 192.035156 244.035156 191.25 244.449219 190.472656 244.847656 L 191.046875 245.976562 C 191.839844 245.574219 192.632812 245.148438 193.410156 244.71875 Z M 193.410156 244.71875 " fill-opacity="1" fill-rule="nonzero"/><path fill="#000000" d="M 188.636719 247.160156 L 188.101562 246.011719 C 187.304688 246.386719 186.496094 246.75 185.695312 247.09375 L 186.191406 248.261719 C 187.007812 247.910156 187.832031 247.542969 188.636719 247.160156 Z M 188.636719 247.160156 " fill-opacity="1" fill-rule="nonzero"/><path fill="#000000" d="M 216.800781 223.070312 L 215.695312 222.457031 C 215.28125 223.203125 214.832031 223.957031 214.351562 224.699219 L 215.410156 225.390625 C 215.910156 224.625 216.375 223.84375 216.800781 223.070312 Z M 216.800781 223.070312 " fill-opacity="1" fill-rule="nonzero"/><path fill="#000000" d="M 213.871094 227.609375 L 212.855469 226.851562 C 212.347656 227.539062 211.800781 228.230469 211.230469 228.90625 L 212.199219 229.722656 C 212.78125 229.027344 213.34375 228.3125 213.871094 227.605469 Z M 213.871094 227.609375 " fill-opacity="1" fill-rule="nonzero"/><path fill="#000000" d="M 219.023438 218.125 L 217.828125 217.707031 C 217.546875 218.511719 217.222656 219.324219 216.863281 220.121094 L 218.011719 220.648438 C 218.386719 219.8125 218.730469 218.964844 219.023438 218.125 Z M 219.023438 218.125 " fill-opacity="1" fill-rule="nonzero"/><g clip-path="url(#e222c85f66)"><path fill="#ffffff" d="M 187.582031 271.511719 L 189.316406 274.953125 L 193.191406 275.503906 L 190.386719 278.1875 L 191.050781 281.96875 L 187.582031 280.183594 L 184.109375 281.96875 L 184.773438 278.1875 L 181.96875 275.503906 L 185.847656 274.953125 Z M 187.582031 271.511719 " fill-opacity="1" fill-rule="nonzero"/><path fill="#ffffff" d="M 187.554688 271.476562 L 189.289062 274.921875 L 193.167969 275.472656 L 190.359375 278.152344 L 191.023438 281.9375 L 187.554688 280.152344 L 184.085938 281.9375 L 184.746094 278.152344 L 181.941406 275.472656 L 185.820312 274.921875 Z M 187.554688 271.476562 " fill-opacity="1" fill-rule="nonzero"/><path fill="#ffffff" d="M 187.554688 271.476562 L 189.289062 274.921875 L 193.167969 275.472656 L 190.359375 278.152344 L 191.023438 281.9375 L 187.554688 280.152344 L 184.085938 281.9375 L 184.746094 278.152344 L 181.941406 275.472656 L 185.820312 274.921875 Z M 187.554688 271.476562 " fill-opacity="1" fill-rule="nonzero"/><path fill="#ffffff" d="M 187.554688 271.476562 L 189.289062 274.921875 L 193.167969 275.472656 L 190.359375 278.152344 L 191.023438 281.9375 L 187.554688 280.152344 L 184.085938 281.9375 L 184.746094 278.152344 L 181.941406 275.472656 L 185.820312 274.921875 Z M 187.554688 271.476562 " fill-opacity="1" fill-rule="nonzero"/></g><g clip-path="url(#b3cd28670f)"><g clip-path="url(#497d4ce582)"><path fill="#0085ff" d="M 76.371094 149.953125 L 298.539062 149.953125 L 298.539062 199.496094 L 76.371094 199.496094 Z M 76.371094 149.953125 " fill-opacity="1" fill-rule="nonzero"/></g></g><g clip-path="url(#a9c56bef39)"><g clip-path="url(#3d3aed903d)"><path stroke-linecap="butt" transform="matrix(0.75, 0, 0, 0.75, 76.386511, 149.953862)" fill="none" stroke-linejoin="miter" d="M 13.000278 -0.000982871 L 283.302379 -0.000982871 C 290.479463 -0.000982871 296.30238 5.821934 296.30238 12.999018 L 296.30238 53.051104 C 296.30238 60.228188 290.479463 66.045896 283.302379 66.045896 L 13.000278 66.045896 C 5.817986 66.045896 0.000277421 60.228188 0.000277421 53.051104 L 0.000277421 12.999018 C 0.000277421 5.821934 5.817986 -0.000982871 13.000278 -0.000982871 Z M 13.000278 -0.000982871 " stroke="#fefefa" stroke-width="2" stroke-opacity="1" stroke-miterlimit="4"/></g></g><g clip-path="url(#96e4e183d7)"><path fill="#ffffff" d="M 187.496094 79.585938 L 189.640625 83.929688 L 194.4375 84.628906 L 190.96875 88.011719 L 191.785156 92.785156 L 187.496094 90.53125 L 183.207031 92.785156 L 184.027344 88.011719 L 180.558594 84.628906 L 185.351562 83.929688 Z M 187.496094 79.585938 " fill-opacity="1" fill-rule="nonzero"/></g><path fill="#ffffff" d="M 202.160156 85.355469 L 203.316406 88.921875 L 206.910156 89.996094 L 203.875 92.195312 L 203.964844 95.945312 L 200.933594 93.738281 L 197.394531 94.984375 L 198.558594 91.417969 L 196.28125 88.4375 L 200.03125 88.441406 Z M 202.160156 85.355469 " fill-opacity="1" fill-rule="nonzero"/><g clip-path="url(#8f41a89694)"><path fill="#ffffff" d="M 172.832031 85.355469 L 171.679688 88.921875 L 168.082031 89.996094 L 171.121094 92.195312 L 171.03125 95.945312 L 174.0625 93.738281 L 177.601562 94.984375 L 176.4375 91.417969 L 178.714844 88.4375 L 174.964844 88.441406 Z M 172.832031 85.355469 " fill-opacity="1" fill-rule="nonzero"/></g><path fill="#000000" d="M 172.253906 202.058594 L 202.722656 202.058594 C 204.15625 202.058594 205.316406 203.21875 205.316406 204.652344 L 205.316406 225.414062 C 205.316406 226.847656 204.15625 228.007812 202.722656 228.007812 L 172.253906 228.007812 C 170.820312 228.007812 169.660156 226.847656 169.660156 225.414062 L 169.660156 204.652344 C 169.660156 203.21875 170.820312 202.058594 172.253906 202.058594 Z M 172.253906 202.058594 " fill-opacity="1" fill-rule="nonzero"/><g fill="#ffffff" fill-opacity="1"><g transform="translate(176.10955, 220.283232)"><g><path d="M 0.484375 -8.09375 L 2.21875 -8.09375 L 2.21875 -8.921875 C 2.21875 -9.109375 2.226562 -9.285156 2.25 -9.453125 C 2.269531 -9.628906 2.300781 -9.789062 2.34375 -9.9375 C 2.382812 -10.0625 2.441406 -10.164062 2.515625 -10.25 C 2.585938 -10.332031 2.6875 -10.375 2.8125 -10.375 C 2.9375 -10.375 3.035156 -10.328125 3.109375 -10.234375 C 3.179688 -10.140625 3.242188 -10.023438 3.296875 -9.890625 C 3.335938 -9.742188 3.363281 -9.582031 3.375 -9.40625 C 3.382812 -9.238281 3.390625 -9.078125 3.390625 -8.921875 C 3.378906 -8.554688 3.328125 -8.171875 3.234375 -7.765625 C 3.140625 -7.367188 3.023438 -6.96875 2.890625 -6.5625 C 2.742188 -6.15625 2.582031 -5.75 2.40625 -5.34375 C 2.238281 -4.945312 2.066406 -4.570312 1.890625 -4.21875 C 1.671875 -3.800781 1.441406 -3.382812 1.203125 -2.96875 C 0.960938 -2.550781 0.707031 -2.132812 0.4375 -1.71875 L 0.4375 0 L 5.15625 0 L 5.15625 -1.71875 L 2.40625 -1.71875 C 2.625 -2.101562 2.890625 -2.582031 3.203125 -3.15625 C 3.515625 -3.738281 3.816406 -4.367188 4.109375 -5.046875 C 4.390625 -5.710938 4.628906 -6.390625 4.828125 -7.078125 C 5.023438 -7.773438 5.125 -8.425781 5.125 -9.03125 C 5.125 -9.4375 5.085938 -9.816406 5.015625 -10.171875 C 4.953125 -10.535156 4.828125 -10.851562 4.640625 -11.125 C 4.472656 -11.382812 4.234375 -11.59375 3.921875 -11.75 C 3.617188 -11.90625 3.25 -11.984375 2.8125 -11.984375 C 2.332031 -11.984375 1.941406 -11.894531 1.640625 -11.71875 C 1.335938 -11.550781 1.101562 -11.328125 0.9375 -11.046875 C 0.757812 -10.765625 0.640625 -10.4375 0.578125 -10.0625 C 0.515625 -9.695312 0.484375 -9.316406 0.484375 -8.921875 Z M 0.484375 -8.09375 "/></g></g></g><g fill="#ffffff" fill-opacity="1"><g transform="translate(181.861991, 220.283232)"><g><path d="M 5.171875 -2.4375 L 5.171875 -9.421875 C 5.148438 -9.898438 5.054688 -10.320312 4.890625 -10.6875 C 4.804688 -10.851562 4.707031 -11.015625 4.59375 -11.171875 C 4.488281 -11.328125 4.351562 -11.460938 4.1875 -11.578125 C 4.03125 -11.691406 3.84375 -11.785156 3.625 -11.859375 C 3.40625 -11.941406 3.148438 -11.984375 2.859375 -11.984375 C 2.566406 -11.984375 2.304688 -11.941406 2.078125 -11.859375 C 1.847656 -11.785156 1.65625 -11.691406 1.5 -11.578125 C 1.332031 -11.460938 1.195312 -11.328125 1.09375 -11.171875 C 0.988281 -11.015625 0.898438 -10.851562 0.828125 -10.6875 C 0.648438 -10.320312 0.550781 -9.898438 0.53125 -9.421875 L 0.53125 -2.4375 C 0.550781 -1.9375 0.648438 -1.503906 0.828125 -1.140625 C 0.898438 -0.984375 0.988281 -0.828125 1.09375 -0.671875 C 1.195312 -0.523438 1.332031 -0.394531 1.5 -0.28125 C 1.832031 -0.0078125 2.285156 0.125 2.859375 0.125 C 3.410156 0.125 3.851562 -0.0078125 4.1875 -0.28125 C 4.351562 -0.394531 4.488281 -0.523438 4.59375 -0.671875 C 4.707031 -0.828125 4.804688 -0.984375 4.890625 -1.140625 C 5.054688 -1.503906 5.148438 -1.9375 5.171875 -2.4375 Z M 3.4375 -9.421875 L 3.4375 -2.4375 C 3.4375 -2.238281 3.414062 -2.09375 3.375 -2 C 3.34375 -1.882812 3.285156 -1.78125 3.203125 -1.6875 C 3.117188 -1.601562 3.003906 -1.5625 2.859375 -1.5625 C 2.710938 -1.5625 2.597656 -1.601562 2.515625 -1.6875 C 2.359375 -1.875 2.28125 -2.125 2.28125 -2.4375 L 2.28125 -9.421875 C 2.28125 -9.585938 2.300781 -9.734375 2.34375 -9.859375 C 2.375 -9.960938 2.425781 -10.054688 2.5 -10.140625 C 2.582031 -10.234375 2.703125 -10.28125 2.859375 -10.28125 C 3.003906 -10.28125 3.117188 -10.238281 3.203125 -10.15625 C 3.359375 -9.976562 3.4375 -9.734375 3.4375 -9.421875 Z M 3.4375 -9.421875 "/></g></g></g><g fill="#ffffff" fill-opacity="1"><g transform="translate(187.566092, 220.283232)"><g><path d="M 0.484375 -8.09375 L 2.21875 -8.09375 L 2.21875 -8.921875 C 2.21875 -9.109375 2.226562 -9.285156 2.25 -9.453125 C 2.269531 -9.628906 2.300781 -9.789062 2.34375 -9.9375 C 2.382812 -10.0625 2.441406 -10.164062 2.515625 -10.25 C 2.585938 -10.332031 2.6875 -10.375 2.8125 -10.375 C 2.9375 -10.375 3.035156 -10.328125 3.109375 -10.234375 C 3.179688 -10.140625 3.242188 -10.023438 3.296875 -9.890625 C 3.335938 -9.742188 3.363281 -9.582031 3.375 -9.40625 C 3.382812 -9.238281 3.390625 -9.078125 3.390625 -8.921875 C 3.378906 -8.554688 3.328125 -8.171875 3.234375 -7.765625 C 3.140625 -7.367188 3.023438 -6.96875 2.890625 -6.5625 C 2.742188 -6.15625 2.582031 -5.75 2.40625 -5.34375 C 2.238281 -4.945312 2.066406 -4.570312 1.890625 -4.21875 C 1.671875 -3.800781 1.441406 -3.382812 1.203125 -2.96875 C 0.960938 -2.550781 0.707031 -2.132812 0.4375 -1.71875 L 0.4375 0 L 5.15625 0 L 5.15625 -1.71875 L 2.40625 -1.71875 C 2.625 -2.101562 2.890625 -2.582031 3.203125 -3.15625 C 3.515625 -3.738281 3.816406 -4.367188 4.109375 -5.046875 C 4.390625 -5.710938 4.628906 -6.390625 4.828125 -7.078125 C 5.023438 -7.773438 5.125 -8.425781 5.125 -9.03125 C 5.125 -9.4375 5.085938 -9.816406 5.015625 -10.171875 C 4.953125 -10.535156 4.828125 -10.851562 4.640625 -11.125 C 4.472656 -11.382812 4.234375 -11.59375 3.921875 -11.75 C 3.617188 -11.90625 3.25 -11.984375 2.8125 -11.984375 C 2.332031 -11.984375 1.941406 -11.894531 1.640625 -11.71875 C 1.335938 -11.550781 1.101562 -11.328125 0.9375 -11.046875 C 0.757812 -10.765625 0.640625 -10.4375 0.578125 -10.0625 C 0.515625 -9.695312 0.484375 -9.316406 0.484375 -8.921875 Z M 0.484375 -8.09375 "/></g></g></g><g fill="#ffffff" fill-opacity="1"><g transform="translate(193.318533, 220.283232)"><g><path d="M 3.390625 -5.609375 L 3.390625 -2.96875 C 3.390625 -2.375 3.34375 -1.957031 3.25 -1.71875 C 3.175781 -1.5 3.046875 -1.390625 2.859375 -1.390625 C 2.648438 -1.390625 2.507812 -1.503906 2.4375 -1.734375 C 2.363281 -1.953125 2.328125 -2.367188 2.328125 -2.984375 L 2.328125 -3.453125 L 0.578125 -3.453125 C 0.578125 -3.054688 0.59375 -2.644531 0.625 -2.21875 C 0.664062 -1.800781 0.765625 -1.421875 0.921875 -1.078125 C 1.066406 -0.722656 1.289062 -0.429688 1.59375 -0.203125 C 1.894531 0.015625 2.316406 0.125 2.859375 0.125 C 3.378906 0.125 3.789062 0.015625 4.09375 -0.203125 C 4.40625 -0.421875 4.640625 -0.691406 4.796875 -1.015625 C 4.941406 -1.328125 5.03125 -1.660156 5.0625 -2.015625 C 5.101562 -2.367188 5.125 -2.6875 5.125 -2.96875 L 5.125 -5.609375 C 5.125 -5.703125 5.109375 -5.882812 5.078125 -6.15625 C 5.046875 -6.425781 4.96875 -6.703125 4.84375 -6.984375 C 4.707031 -7.265625 4.507812 -7.515625 4.25 -7.734375 C 4 -7.953125 3.644531 -8.0625 3.1875 -8.0625 C 3.070312 -8.082031 2.957031 -8.066406 2.84375 -8.015625 C 2.71875 -7.972656 2.601562 -7.921875 2.5 -7.859375 C 2.394531 -7.796875 2.289062 -7.726562 2.1875 -7.65625 L 2.1875 -10.125 L 4.90625 -10.125 L 4.90625 -11.859375 L 0.6875 -11.859375 L 0.6875 -5.609375 L 2.15625 -5.609375 C 2.15625 -5.671875 2.171875 -5.753906 2.203125 -5.859375 C 2.234375 -5.960938 2.285156 -6.0625 2.359375 -6.15625 C 2.421875 -6.238281 2.488281 -6.3125 2.5625 -6.375 C 2.644531 -6.445312 2.738281 -6.484375 2.84375 -6.484375 C 3.019531 -6.484375 3.15625 -6.398438 3.25 -6.234375 C 3.34375 -6.066406 3.390625 -5.859375 3.390625 -5.609375 Z M 3.390625 -5.609375 "/></g></g></g><g fill="#000000" fill-opacity="0.302"><g transform="translate(164.763201, 188.953377)"><g><path d="M 11.203125 -10.5625 L 11.265625 -10.5625 L 12.796875 -25.390625 L 21.625 -25.390625 L 21.625 0 L 16.078125 0 L 16.078125 -18.84375 L 16 -18.84375 L 13.265625 0 L 9.140625 0 L 6.40625 -18.84375 L 6.328125 -18.84375 L 6.328125 0 L 0.78125 0 L 0.78125 -25.390625 L 9.5 -25.390625 Z M 11.203125 -10.5625 "/></g></g></g><g fill="#000000" fill-opacity="0.302"><g transform="translate(188.016175, 188.953377)"><g><path d="M 15.359375 -19.734375 L 15.359375 -16.28125 C 15.359375 -14.269531 14.894531 -12.773438 13.96875 -11.796875 C 13.050781 -10.828125 11.757812 -10.34375 10.09375 -10.34375 L 7.109375 -10.34375 L 7.109375 0 L 0.78125 0 L 0.78125 -25.390625 L 9.5 -25.390625 C 11.363281 -25.390625 12.804688 -24.894531 13.828125 -23.90625 C 14.847656 -22.925781 15.359375 -21.535156 15.359375 -19.734375 Z M 9.8125 -16.078125 L 9.8125 -19.671875 C 9.8125 -20.640625 9.316406 -21.125 8.328125 -21.125 L 7.109375 -21.125 L 7.109375 -14.609375 L 8.328125 -14.609375 C 9.316406 -14.609375 9.8125 -15.097656 9.8125 -16.078125 Z M 9.8125 -16.078125 "/></g></g></g><g fill="#000000" fill-opacity="0.302"><g transform="translate(204.655987, 188.953377)"><g><path d="M 7.328125 -4.90625 L 11.671875 -4.90625 L 11.671875 0 L 0.78125 0 L 0.78125 -25.390625 L 7.328125 -25.390625 Z M 7.328125 -4.90625 "/></g></g></g><g fill="#000000" fill-opacity="0.502"><g transform="translate(163.191461, 187.381629)"><g><path d="M 11.203125 -10.5625 L 11.265625 -10.5625 L 12.796875 -25.390625 L 21.625 -25.390625 L 21.625 0 L 16.078125 0 L 16.078125 -18.84375 L 16 -18.84375 L 13.265625 0 L 9.140625 0 L 6.40625 -18.84375 L 6.328125 -18.84375 L 6.328125 0 L 0.78125 0 L 0.78125 -25.390625 L 9.5 -25.390625 Z M 11.203125 -10.5625 "/></g></g></g><g fill="#000000" fill-opacity="0.502"><g transform="translate(186.444434, 187.381629)"><g><path d="M 15.359375 -19.734375 L 15.359375 -16.28125 C 15.359375 -14.269531 14.894531 -12.773438 13.96875 -11.796875 C 13.050781 -10.828125 11.757812 -10.34375 10.09375 -10.34375 L 7.109375 -10.34375 L 7.109375 0 L 0.78125 0 L 0.78125 -25.390625 L 9.5 -25.390625 C 11.363281 -25.390625 12.804688 -24.894531 13.828125 -23.90625 C 14.847656 -22.925781 15.359375 -21.535156 15.359375 -19.734375 Z M 9.8125 -16.078125 L 9.8125 -19.671875 C 9.8125 -20.640625 9.316406 -21.125 8.328125 -21.125 L 7.109375 -21.125 L 7.109375 -14.609375 L 8.328125 -14.609375 C 9.316406 -14.609375 9.8125 -15.097656 9.8125 -16.078125 Z M 9.8125 -16.078125 "/></g></g></g><g fill="#000000" fill-opacity="0.502"><g transform="translate(203.084246, 187.381629)"><g><path d="M 7.328125 -4.90625 L 11.671875 -4.90625 L 11.671875 0 L 0.78125 0 L 0.78125 -25.390625 L 7.328125 -25.390625 Z M 7.328125 -4.90625 "/></g></g></g><g fill="#ffffff" fill-opacity="1"><g transform="translate(161.61972, 185.809896)"><g><path d="M 11.203125 -10.5625 L 11.265625 -10.5625 L 12.796875 -25.390625 L 21.625 -25.390625 L 21.625 0 L 16.078125 0 L 16.078125 -18.84375 L 16 -18.84375 L 13.265625 0 L 9.140625 0 L 6.40625 -18.84375 L 6.328125 -18.84375 L 6.328125 0 L 0.78125 0 L 0.78125 -25.390625 L 9.5 -25.390625 Z M 11.203125 -10.5625 "/></g></g></g><g fill="#ffffff" fill-opacity="1"><g transform="translate(184.872694, 185.809896)"><g><path d="M 15.359375 -19.734375 L 15.359375 -16.28125 C 15.359375 -14.269531 14.894531 -12.773438 13.96875 -11.796875 C 13.050781 -10.828125 11.757812 -10.34375 10.09375 -10.34375 L 7.109375 -10.34375 L 7.109375 0 L 0.78125 0 L 0.78125 -25.390625 L 9.5 -25.390625 C 11.363281 -25.390625 12.804688 -24.894531 13.828125 -23.90625 C 14.847656 -22.925781 15.359375 -21.535156 15.359375 -19.734375 Z M 9.8125 -16.078125 L 9.8125 -19.671875 C 9.8125 -20.640625 9.316406 -21.125 8.328125 -21.125 L 7.109375 -21.125 L 7.109375 -14.609375 L 8.328125 -14.609375 C 9.316406 -14.609375 9.8125 -15.097656 9.8125 -16.078125 Z M 9.8125 -16.078125 "/></g></g></g><g fill="#ffffff" fill-opacity="1"><g transform="translate(201.512505, 185.809896)"><g><path d="M 7.328125 -4.90625 L 11.671875 -4.90625 L 11.671875 0 L 0.78125 0 L 0.78125 -25.390625 L 7.328125 -25.390625 Z M 7.328125 -4.90625 "/></g></g></g></svg>